<?xml version="1.0" encoding="UTF-8"?>
<svg class="arrow">
    <g id="Page-1" stroke="none" stroke-width="1" fill="none" fill-rule="evenodd">
        <g id="noun_624337_cc" transform="translate(0.000000, -1.000000)" fill="#000000">
            <g id="Group" transform="translate(0.000000, 0.637820)">
                <path d="M45,0.36218 C20.182716,0.36218 0,20.5449 0,45.36218 C0,70.17948 20.182716,90.36218 45,90.36218 C69.817284,90.36218 90,70.17948 90,45.36218 C90,20.5449 69.817284,0.36218 45,0.36218 L45,0.36218 Z M45,6.36218 C66.574644,6.36218 84,23.78754 84,45.36218 C84,66.93678 66.574644,84.36218 45,84.36218 C23.425356,84.36218 6,66.93678 6,45.36218 C6,23.78754 23.425356,6.36218 45,6.36218 L45,6.36218 Z M34.84375,20.33093 C33.6308636,20.3881177 32.5720246,21.170718 32.161467,22.3134368 C31.7509093,23.4561557 32.0695866,24.733672 32.96875,25.54968 L54.5625,45.36218 L32.96875,65.14343 C32.1184397,65.8528343 31.7280235,66.9729355 31.9531474,68.057187 C32.1782712,69.1414385 32.9823278,70.0135306 34.0447667,70.3257895 C35.1072056,70.6380483 36.2552642,70.3396977 37.03125,69.54968 L61.03125,47.54968 C61.6455709,46.9817724 61.9948762,46.1831608 61.9948762,45.346555 C61.9948762,44.5099492 61.6455709,43.7113376 61.03125,43.14343 L37.03125,21.14343 C36.4415929,20.5885163 35.6526807,20.2954917 34.84375,20.33093 L34.84375,20.33093 Z" id="Shape"></path>
            </g>
        </g>
    </g>
</svg>
