<?xml version="1.0" encoding="UTF-8"?>
<svg width="31px" height="31px" viewBox="0 0 31 31" version="1.1" xmlns="http://www.w3.org/2000/svg" xmlns:xlink="http://www.w3.org/1999/xlink">
    <!-- Generator: Sketch 40.2 (33826) - http://www.bohemiancoding.com/sketch -->
    <title>Shape</title>
    <desc>Created with Sketch.</desc>
    <defs></defs>
    <g id="Page-1" stroke="none" stroke-width="1" fill="none" fill-rule="evenodd">
        <path d="M26.5,4.5 C23.5,1.6 19.6,0 15.5,0 C11.4,0 7.5,1.6 4.5,4.5 C-1.5,10.5 -1.5,20.4 4.5,26.4 C7.4,29.3 11.3,30.9 15.5,30.9 C19.6,30.9 23.5,29.3 26.5,26.4 C29.4,23.5 31,19.6 31,15.4 C31,11.4 29.4,7.5 26.5,4.5 L26.5,4.5 Z M23.5,16.3 L9.4,16.3 L12.5,19.4 C12.8,19.7 12.8,20.2 12.5,20.5 C12.4,20.6 12.2,20.7 12,20.7 C11.8,20.7 11.6,20.6 11.5,20.5 L7.1,16.1 C6.8,15.8 6.8,15.3 7.1,15 L11.5,10.6 C11.8,10.3 12.3,10.3 12.6,10.6 C12.9,10.9 12.9,11.4 12.6,11.7 L9.5,14.8 L23.6,14.8 C24,14.8 24.4,15.1 24.4,15.6 C24.2,15.9 23.9,16.3 23.5,16.3 L23.5,16.3 Z" id="Shape" fill="#FFFFFF"></path>
    </g>
</svg>