<?xml version="1.0" encoding="UTF-8"?>
<svg width="1808px" height="1860px" viewBox="0 0 1808 1860" version="1.1" xmlns="http://www.w3.org/2000/svg" xmlns:xlink="http://www.w3.org/1999/xlink">
    <!-- Generator: Sketch 40.2 (33826) - http://www.bohemiancoding.com/sketch -->
    <title>Electron_shell_112_Copernicium_-_no_label</title>
    <desc>Created with Sketch.</desc>
    <defs></defs>
    <g id="Page-1" stroke="none" stroke-width="1" fill="none" fill-rule="evenodd">
        <g id="Electron_shell_112_Copernicium_-_no_label" transform="translate(4.000000, 0.000000)">
            <g id="Electron-shell-Copernicium">
                <circle id="Oval" fill="#131313" cx="900" cy="930" r="200"></circle>
                <g id="Group">
                    <circle id="shell_1" stroke="#77868B" stroke-width="8" cx="900" cy="930" r="300"></circle>
                    <g id="electron_0_shell_1" transform="translate(870.000000, 600.000000)" fill="#77868B">
                        <circle id="electron" cx="30" cy="30" r="30"></circle>
                    </g>
                    <g id="electron_1_shell_1" transform="translate(900.000000, 1230.000000) rotate(180.000000) translate(-900.000000, -1230.000000) translate(870.000000, 1200.000000)" fill="#77868B">
                        <g id="electron_0_shell_1">
                            <circle id="electron" cx="30" cy="30" r="30"></circle>
                        </g>
                    </g>
                    <circle id="shell_2" stroke="#77868B" stroke-width="8" cx="900" cy="930" r="400"></circle>
                    <g id="electron_0_shell_2" transform="translate(870.000000, 500.000000)" fill="#77868B">
                        <circle id="electron" cx="30" cy="30" r="30"></circle>
                    </g>
                    <g id="electron_1_shell_2" transform="translate(1182.842712, 647.157288) rotate(45.000000) translate(-1182.842712, -647.157288) translate(1152.842712, 617.157288)" fill="#77868B">
                        <g id="electron_0_shell_2">
                            <circle id="electron" cx="30" cy="30" r="30"></circle>
                        </g>
                    </g>
                    <g id="electron_2_shell_2" transform="translate(1300.000000, 930.000000) rotate(90.000000) translate(-1300.000000, -930.000000) translate(1270.000000, 900.000000)" fill="#77868B">
                        <g id="electron_0_shell_2">
                            <circle id="electron" cx="30" cy="30" r="30"></circle>
                        </g>
                    </g>
                    <g id="electron_3_shell_2" transform="translate(1182.842712, 1212.842712) rotate(135.000000) translate(-1182.842712, -1212.842712) translate(1152.842712, 1182.842712)" fill="#77868B">
                        <g id="electron_0_shell_2">
                            <circle id="electron" cx="30" cy="30" r="30"></circle>
                        </g>
                    </g>
                    <g id="electron_4_shell_2" transform="translate(900.000000, 1330.000000) rotate(180.000000) translate(-900.000000, -1330.000000) translate(870.000000, 1300.000000)" fill="#77868B">
                        <g id="electron_0_shell_2">
                            <circle id="electron" cx="30" cy="30" r="30"></circle>
                        </g>
                    </g>
                    <g id="electron_5_shell_2" transform="translate(617.157288, 1212.842712) rotate(225.000000) translate(-617.157288, -1212.842712) translate(587.157288, 1182.842712)" fill="#77868B">
                        <g id="electron_0_shell_2">
                            <circle id="electron" cx="30" cy="30" r="30"></circle>
                        </g>
                    </g>
                    <g id="electron_6_shell_2" transform="translate(500.000000, 930.000000) rotate(270.000000) translate(-500.000000, -930.000000) translate(470.000000, 900.000000)" fill="#77868B">
                        <g id="electron_0_shell_2">
                            <circle id="electron" cx="30" cy="30" r="30"></circle>
                        </g>
                    </g>
                    <g id="electron_7_shell_2" transform="translate(617.157288, 647.157288) rotate(-45.000000) translate(-617.157288, -647.157288) translate(587.157288, 617.157288)" fill="#77868B">
                        <g id="electron_0_shell_2">
                            <circle id="electron" cx="30" cy="30" r="30"></circle>
                        </g>
                    </g>
                    <circle id="shell_3" stroke="#77868B" stroke-width="8" cx="900" cy="930" r="500"></circle>
                    <g id="electron_0_shell_3" transform="translate(870.000000, 400.000000)" fill="#77868B">
                        <circle id="electron" cx="30" cy="30" r="30"></circle>
                    </g>
                    <g id="electron_1_shell_3" transform="translate(1071.010072, 460.153690) rotate(20.000000) translate(-1071.010072, -460.153690) translate(1041.010072, 430.153690)" fill="#77868B">
                        <g id="electron_0_shell_3">
                            <circle id="electron" cx="30" cy="30" r="30"></circle>
                        </g>
                    </g>
                    <g id="electron_2_shell_3" transform="translate(1221.393805, 546.977778) rotate(40.000000) translate(-1221.393805, -546.977778) translate(1191.393805, 516.977778)" fill="#77868B">
                        <g id="electron_0_shell_3">
                            <circle id="electron" cx="30" cy="30" r="30"></circle>
                        </g>
                    </g>
                    <g id="electron_3_shell_3" transform="translate(1333.012702, 680.000000) rotate(60.000000) translate(-1333.012702, -680.000000) translate(1303.012702, 650.000000)" fill="#77868B">
                        <g id="electron_0_shell_3">
                            <circle id="electron" cx="30" cy="30" r="30"></circle>
                        </g>
                    </g>
                    <g id="electron_4_shell_3" transform="translate(1392.403877, 843.175911) rotate(80.000000) translate(-1392.403877, -843.175911) translate(1362.403877, 813.175911)" fill="#77868B">
                        <g id="electron_0_shell_3">
                            <circle id="electron" cx="30" cy="30" r="30"></circle>
                        </g>
                    </g>
                    <g id="electron_5_shell_3" transform="translate(1392.403877, 1016.824089) rotate(100.000000) translate(-1392.403877, -1016.824089) translate(1362.403877, 986.824089)" fill="#77868B">
                        <g id="electron_0_shell_3">
                            <circle id="electron" cx="30" cy="30" r="30"></circle>
                        </g>
                    </g>
                    <g id="electron_6_shell_3" transform="translate(1333.012702, 1180.000000) rotate(120.000000) translate(-1333.012702, -1180.000000) translate(1303.012702, 1150.000000)" fill="#77868B">
                        <g id="electron_0_shell_3">
                            <circle id="electron" cx="30" cy="30" r="30"></circle>
                        </g>
                    </g>
                    <g id="electron_7_shell_3" transform="translate(1221.393805, 1313.022222) rotate(140.000000) translate(-1221.393805, -1313.022222) translate(1191.393805, 1283.022222)" fill="#77868B">
                        <g id="electron_0_shell_3">
                            <circle id="electron" cx="30" cy="30" r="30"></circle>
                        </g>
                    </g>
                    <g id="electron_8_shell_3" transform="translate(1071.010072, 1399.846310) rotate(160.000000) translate(-1071.010072, -1399.846310) translate(1041.010072, 1369.846310)" fill="#77868B">
                        <g id="electron_0_shell_3">
                            <circle id="electron" cx="30" cy="30" r="30"></circle>
                        </g>
                    </g>
                    <g id="electron_9_shell_3" transform="translate(900.000000, 1430.000000) rotate(180.000000) translate(-900.000000, -1430.000000) translate(870.000000, 1400.000000)" fill="#77868B">
                        <g id="electron_0_shell_3">
                            <circle id="electron" cx="30" cy="30" r="30"></circle>
                        </g>
                    </g>
                    <g id="electron_10_shell_3" transform="translate(728.989928, 1399.846310) rotate(200.000000) translate(-728.989928, -1399.846310) translate(698.989928, 1369.846310)" fill="#77868B">
                        <g id="electron_0_shell_3">
                            <circle id="electron" cx="30" cy="30" r="30"></circle>
                        </g>
                    </g>
                    <g id="electron_11_shell_3" transform="translate(578.606195, 1313.022222) rotate(220.000000) translate(-578.606195, -1313.022222) translate(548.606195, 1283.022222)" fill="#77868B">
                        <g id="electron_0_shell_3">
                            <circle id="electron" cx="30" cy="30" r="30"></circle>
                        </g>
                    </g>
                    <g id="electron_12_shell_3" transform="translate(466.987298, 1180.000000) rotate(240.000000) translate(-466.987298, -1180.000000) translate(436.987298, 1150.000000)" fill="#77868B">
                        <g id="electron_0_shell_3">
                            <circle id="electron" cx="30" cy="30" r="30"></circle>
                        </g>
                    </g>
                    <g id="electron_13_shell_3" transform="translate(407.596123, 1016.824089) rotate(260.000000) translate(-407.596123, -1016.824089) translate(377.596123, 986.824089)" fill="#77868B">
                        <g id="electron_0_shell_3">
                            <circle id="electron" cx="30" cy="30" r="30"></circle>
                        </g>
                    </g>
                    <g id="electron_14_shell_3" transform="translate(407.596123, 843.175911) rotate(-80.000000) translate(-407.596123, -843.175911) translate(377.596123, 813.175911)" fill="#77868B">
                        <g id="electron_0_shell_3">
                            <circle id="electron" cx="30" cy="30" r="30"></circle>
                        </g>
                    </g>
                    <g id="electron_15_shell_3" transform="translate(466.987298, 680.000000) rotate(-60.000000) translate(-466.987298, -680.000000) translate(436.987298, 650.000000)" fill="#77868B">
                        <g id="electron_0_shell_3">
                            <circle id="electron" cx="30" cy="30" r="30"></circle>
                        </g>
                    </g>
                    <g id="electron_16_shell_3" transform="translate(578.606195, 546.977778) rotate(-40.000000) translate(-578.606195, -546.977778) translate(548.606195, 516.977778)" fill="#77868B">
                        <g id="electron_0_shell_3">
                            <circle id="electron" cx="30" cy="30" r="30"></circle>
                        </g>
                    </g>
                    <g id="electron_17_shell_3" transform="translate(728.989928, 460.153690) rotate(-20.000000) translate(-728.989928, -460.153690) translate(698.989928, 430.153690)" fill="#77868B">
                        <g id="electron_0_shell_3">
                            <circle id="electron" cx="30" cy="30" r="30"></circle>
                        </g>
                    </g>
                    <circle id="shell_4" stroke="#77868B" stroke-width="8" cx="900" cy="930" r="600"></circle>
                    <g id="electron_0_shell_4" transform="translate(870.000000, 300.000000)" fill="#77868B">
                        <circle id="electron" cx="30" cy="30" r="30"></circle>
                    </g>
                    <g id="electron_1_shell_4" transform="translate(1017.054193, 341.528832) rotate(11.250000) translate(-1017.054193, -341.528832) translate(987.054193, 311.528832)" fill="#77868B">
                        <g id="electron_0_shell_4">
                            <circle id="electron" cx="30" cy="30" r="30"></circle>
                        </g>
                    </g>
                    <g id="electron_2_shell_4" transform="translate(1129.610059, 375.672280) rotate(22.500000) translate(-1129.610059, -375.672280) translate(1099.610059, 345.672280)" fill="#77868B">
                        <g id="electron_0_shell_4">
                            <circle id="electron" cx="30" cy="30" r="30"></circle>
                        </g>
                    </g>
                    <g id="electron_3_shell_4" transform="translate(1233.342140, 431.118233) rotate(33.750000) translate(-1233.342140, -431.118233) translate(1203.342140, 401.118233)" fill="#77868B">
                        <g id="electron_0_shell_4">
                            <circle id="electron" cx="30" cy="30" r="30"></circle>
                        </g>
                    </g>
                    <g id="electron_4_shell_4" transform="translate(1324.264069, 505.735931) rotate(45.000000) translate(-1324.264069, -505.735931) translate(1294.264069, 475.735931)" fill="#77868B">
                        <g id="electron_0_shell_4">
                            <circle id="electron" cx="30" cy="30" r="30"></circle>
                        </g>
                    </g>
                    <g id="electron_5_shell_4" transform="translate(1398.881767, 596.657860) rotate(56.250000) translate(-1398.881767, -596.657860) translate(1368.881767, 566.657860)" fill="#77868B">
                        <g id="electron_0_shell_4">
                            <circle id="electron" cx="30" cy="30" r="30"></circle>
                        </g>
                    </g>
                    <g id="electron_6_shell_4" transform="translate(1454.327720, 700.389941) rotate(67.500000) translate(-1454.327720, -700.389941) translate(1424.327720, 670.389941)" fill="#77868B">
                        <g id="electron_0_shell_4">
                            <circle id="electron" cx="30" cy="30" r="30"></circle>
                        </g>
                    </g>
                    <g id="electron_7_shell_4" transform="translate(1488.471168, 812.945807) rotate(78.750000) translate(-1488.471168, -812.945807) translate(1458.471168, 782.945807)" fill="#77868B">
                        <g id="electron_0_shell_4">
                            <circle id="electron" cx="30" cy="30" r="30"></circle>
                        </g>
                    </g>
                    <g id="electron_8_shell_4" transform="translate(1500.000000, 930.000000) rotate(90.000000) translate(-1500.000000, -930.000000) translate(1470.000000, 900.000000)" fill="#77868B">
                        <g id="electron_0_shell_4">
                            <circle id="electron" cx="30" cy="30" r="30"></circle>
                        </g>
                    </g>
                    <g id="electron_9_shell_4" transform="translate(1488.471168, 1047.054193) rotate(101.250000) translate(-1488.471168, -1047.054193) translate(1458.471168, 1017.054193)" fill="#77868B">
                        <g id="electron_0_shell_4">
                            <circle id="electron" cx="30" cy="30" r="30"></circle>
                        </g>
                    </g>
                    <g id="electron_10_shell_4" transform="translate(1454.327720, 1159.610059) rotate(112.500000) translate(-1454.327720, -1159.610059) translate(1424.327720, 1129.610059)" fill="#77868B">
                        <g id="electron_0_shell_4">
                            <circle id="electron" cx="30" cy="30" r="30"></circle>
                        </g>
                    </g>
                    <g id="electron_11_shell_4" transform="translate(1398.881767, 1263.342140) rotate(123.750000) translate(-1398.881767, -1263.342140) translate(1368.881767, 1233.342140)" fill="#77868B">
                        <g id="electron_0_shell_4">
                            <circle id="electron" cx="30" cy="30" r="30"></circle>
                        </g>
                    </g>
                    <g id="electron_12_shell_4" transform="translate(1324.264069, 1354.264069) rotate(135.000000) translate(-1324.264069, -1354.264069) translate(1294.264069, 1324.264069)" fill="#77868B">
                        <g id="electron_0_shell_4">
                            <circle id="electron" cx="30" cy="30" r="30"></circle>
                        </g>
                    </g>
                    <g id="electron_13_shell_4" transform="translate(1233.342140, 1428.881767) rotate(146.250000) translate(-1233.342140, -1428.881767) translate(1203.342140, 1398.881767)" fill="#77868B">
                        <g id="electron_0_shell_4">
                            <circle id="electron" cx="30" cy="30" r="30"></circle>
                        </g>
                    </g>
                    <g id="electron_14_shell_4" transform="translate(1129.610059, 1484.327720) rotate(157.500000) translate(-1129.610059, -1484.327720) translate(1099.610059, 1454.327720)" fill="#77868B">
                        <g id="electron_0_shell_4">
                            <circle id="electron" cx="30" cy="30" r="30"></circle>
                        </g>
                    </g>
                    <g id="electron_15_shell_4" transform="translate(1017.054193, 1518.471168) rotate(168.750000) translate(-1017.054193, -1518.471168) translate(987.054193, 1488.471168)" fill="#77868B">
                        <g id="electron_0_shell_4">
                            <circle id="electron" cx="30" cy="30" r="30"></circle>
                        </g>
                    </g>
                    <g id="electron_16_shell_4" transform="translate(900.000000, 1530.000000) rotate(180.000000) translate(-900.000000, -1530.000000) translate(870.000000, 1500.000000)" fill="#77868B">
                        <g id="electron_0_shell_4">
                            <circle id="electron" cx="30" cy="30" r="30"></circle>
                        </g>
                    </g>
                    <g id="electron_17_shell_4" transform="translate(782.945807, 1518.471168) rotate(191.250000) translate(-782.945807, -1518.471168) translate(752.945807, 1488.471168)" fill="#77868B">
                        <g id="electron_0_shell_4">
                            <circle id="electron" cx="30" cy="30" r="30"></circle>
                        </g>
                    </g>
                    <g id="electron_18_shell_4" transform="translate(670.389941, 1484.327720) rotate(202.500000) translate(-670.389941, -1484.327720) translate(640.389941, 1454.327720)" fill="#77868B">
                        <g id="electron_0_shell_4">
                            <circle id="electron" cx="30" cy="30" r="30"></circle>
                        </g>
                    </g>
                    <g id="electron_19_shell_4" transform="translate(566.657860, 1428.881767) rotate(213.750000) translate(-566.657860, -1428.881767) translate(536.657860, 1398.881767)" fill="#77868B">
                        <g id="electron_0_shell_4">
                            <circle id="electron" cx="30" cy="30" r="30"></circle>
                        </g>
                    </g>
                    <g id="electron_20_shell_4" transform="translate(475.735931, 1354.264069) rotate(225.000000) translate(-475.735931, -1354.264069) translate(445.735931, 1324.264069)" fill="#77868B">
                        <g id="electron_0_shell_4">
                            <circle id="electron" cx="30" cy="30" r="30"></circle>
                        </g>
                    </g>
                    <g id="electron_21_shell_4" transform="translate(401.118233, 1263.342140) rotate(236.250000) translate(-401.118233, -1263.342140) translate(371.118233, 1233.342140)" fill="#77868B">
                        <g id="electron_0_shell_4">
                            <circle id="electron" cx="30" cy="30" r="30"></circle>
                        </g>
                    </g>
                    <g id="electron_22_shell_4" transform="translate(345.672280, 1159.610059) rotate(247.500000) translate(-345.672280, -1159.610059) translate(315.672280, 1129.610059)" fill="#77868B">
                        <g id="electron_0_shell_4">
                            <circle id="electron" cx="30" cy="30" r="30"></circle>
                        </g>
                    </g>
                    <g id="electron_23_shell_4" transform="translate(311.528832, 1047.054193) rotate(258.750000) translate(-311.528832, -1047.054193) translate(281.528832, 1017.054193)" fill="#77868B">
                        <g id="electron_0_shell_4">
                            <circle id="electron" cx="30" cy="30" r="30"></circle>
                        </g>
                    </g>
                    <g id="electron_24_shell_4" transform="translate(300.000000, 930.000000) rotate(270.000000) translate(-300.000000, -930.000000) translate(270.000000, 900.000000)" fill="#77868B">
                        <g id="electron_0_shell_4">
                            <circle id="electron" cx="30" cy="30" r="30"></circle>
                        </g>
                    </g>
                    <g id="electron_25_shell_4" transform="translate(311.528832, 812.945807) rotate(-78.750000) translate(-311.528832, -812.945807) translate(281.528832, 782.945807)" fill="#77868B">
                        <g id="electron_0_shell_4">
                            <circle id="electron" cx="30" cy="30" r="30"></circle>
                        </g>
                    </g>
                    <g id="electron_26_shell_4" transform="translate(345.672280, 700.389941) rotate(-67.500000) translate(-345.672280, -700.389941) translate(315.672280, 670.389941)" fill="#77868B">
                        <g id="electron_0_shell_4">
                            <circle id="electron" cx="30" cy="30" r="30"></circle>
                        </g>
                    </g>
                    <g id="electron_27_shell_4" transform="translate(401.118233, 596.657860) rotate(-56.250000) translate(-401.118233, -596.657860) translate(371.118233, 566.657860)" fill="#77868B">
                        <g id="electron_0_shell_4">
                            <circle id="electron" cx="30" cy="30" r="30"></circle>
                        </g>
                    </g>
                    <g id="electron_28_shell_4" transform="translate(475.735931, 505.735931) rotate(-45.000000) translate(-475.735931, -505.735931) translate(445.735931, 475.735931)" fill="#77868B">
                        <g id="electron_0_shell_4">
                            <circle id="electron" cx="30" cy="30" r="30"></circle>
                        </g>
                    </g>
                    <g id="electron_29_shell_4" transform="translate(566.657860, 431.118233) rotate(-33.750000) translate(-566.657860, -431.118233) translate(536.657860, 401.118233)" fill="#77868B">
                        <g id="electron_0_shell_4">
                            <circle id="electron" cx="30" cy="30" r="30"></circle>
                        </g>
                    </g>
                    <g id="electron_30_shell_4" transform="translate(670.389941, 375.672280) rotate(-22.500000) translate(-670.389941, -375.672280) translate(640.389941, 345.672280)" fill="#77868B">
                        <g id="electron_0_shell_4">
                            <circle id="electron" cx="30" cy="30" r="30"></circle>
                        </g>
                    </g>
                    <g id="electron_31_shell_4" transform="translate(782.945807, 341.528832) rotate(-11.250000) translate(-782.945807, -341.528832) translate(752.945807, 311.528832)" fill="#77868B">
                        <g id="electron_0_shell_4">
                            <circle id="electron" cx="30" cy="30" r="30"></circle>
                        </g>
                    </g>
                    <circle id="shell_5" stroke="#77868B" stroke-width="8" cx="900" cy="930" r="700"></circle>
                    <g id="electron_0_shell_5" transform="translate(870.000000, 200.000000)" fill="#77868B">
                        <circle id="electron" cx="30" cy="30" r="30"></circle>
                    </g>
                    <g id="electron_1_shell_5" transform="translate(1036.563225, 243.450304) rotate(11.250000) translate(-1036.563225, -243.450304) translate(1006.563225, 213.450304)" fill="#77868B">
                        <g id="electron_0_shell_5">
                            <circle id="electron" cx="30" cy="30" r="30"></circle>
                        </g>
                    </g>
                    <g id="electron_2_shell_5" transform="translate(1167.878403, 283.284327) rotate(22.500000) translate(-1167.878403, -283.284327) translate(1137.878403, 253.284327)" fill="#77868B">
                        <g id="electron_0_shell_5">
                            <circle id="electron" cx="30" cy="30" r="30"></circle>
                        </g>
                    </g>
                    <g id="electron_3_shell_5" transform="translate(1288.899163, 347.971271) rotate(33.750000) translate(-1288.899163, -347.971271) translate(1258.899163, 317.971271)" fill="#77868B">
                        <g id="electron_0_shell_5">
                            <circle id="electron" cx="30" cy="30" r="30"></circle>
                        </g>
                    </g>
                    <g id="electron_4_shell_5" transform="translate(1394.974747, 435.025253) rotate(45.000000) translate(-1394.974747, -435.025253) translate(1364.974747, 405.025253)" fill="#77868B">
                        <g id="electron_0_shell_5">
                            <circle id="electron" cx="30" cy="30" r="30"></circle>
                        </g>
                    </g>
                    <g id="electron_5_shell_5" transform="translate(1482.028729, 541.100837) rotate(56.250000) translate(-1482.028729, -541.100837) translate(1452.028729, 511.100837)" fill="#77868B">
                        <g id="electron_0_shell_5">
                            <circle id="electron" cx="30" cy="30" r="30"></circle>
                        </g>
                    </g>
                    <g id="electron_6_shell_5" transform="translate(1546.715673, 662.121597) rotate(67.500000) translate(-1546.715673, -662.121597) translate(1516.715673, 632.121597)" fill="#77868B">
                        <g id="electron_0_shell_5">
                            <circle id="electron" cx="30" cy="30" r="30"></circle>
                        </g>
                    </g>
                    <g id="electron_7_shell_5" transform="translate(1586.549696, 793.436775) rotate(78.750000) translate(-1586.549696, -793.436775) translate(1556.549696, 763.436775)" fill="#77868B">
                        <g id="electron_0_shell_5">
                            <circle id="electron" cx="30" cy="30" r="30"></circle>
                        </g>
                    </g>
                    <g id="electron_8_shell_5" transform="translate(1600.000000, 930.000000) rotate(90.000000) translate(-1600.000000, -930.000000) translate(1570.000000, 900.000000)" fill="#77868B">
                        <g id="electron_0_shell_5">
                            <circle id="electron" cx="30" cy="30" r="30"></circle>
                        </g>
                    </g>
                    <g id="electron_9_shell_5" transform="translate(1586.549696, 1066.563225) rotate(101.250000) translate(-1586.549696, -1066.563225) translate(1556.549696, 1036.563225)" fill="#77868B">
                        <g id="electron_0_shell_5">
                            <circle id="electron" cx="30" cy="30" r="30"></circle>
                        </g>
                    </g>
                    <g id="electron_10_shell_5" transform="translate(1546.715673, 1197.878403) rotate(112.500000) translate(-1546.715673, -1197.878403) translate(1516.715673, 1167.878403)" fill="#77868B">
                        <g id="electron_0_shell_5">
                            <circle id="electron" cx="30" cy="30" r="30"></circle>
                        </g>
                    </g>
                    <g id="electron_11_shell_5" transform="translate(1482.028729, 1318.899163) rotate(123.750000) translate(-1482.028729, -1318.899163) translate(1452.028729, 1288.899163)" fill="#77868B">
                        <g id="electron_0_shell_5">
                            <circle id="electron" cx="30" cy="30" r="30"></circle>
                        </g>
                    </g>
                    <g id="electron_12_shell_5" transform="translate(1394.974747, 1424.974747) rotate(135.000000) translate(-1394.974747, -1424.974747) translate(1364.974747, 1394.974747)" fill="#77868B">
                        <g id="electron_0_shell_5">
                            <circle id="electron" cx="30" cy="30" r="30"></circle>
                        </g>
                    </g>
                    <g id="electron_13_shell_5" transform="translate(1288.899163, 1512.028729) rotate(146.250000) translate(-1288.899163, -1512.028729) translate(1258.899163, 1482.028729)" fill="#77868B">
                        <g id="electron_0_shell_5">
                            <circle id="electron" cx="30" cy="30" r="30"></circle>
                        </g>
                    </g>
                    <g id="electron_14_shell_5" transform="translate(1167.878403, 1576.715673) rotate(157.500000) translate(-1167.878403, -1576.715673) translate(1137.878403, 1546.715673)" fill="#77868B">
                        <g id="electron_0_shell_5">
                            <circle id="electron" cx="30" cy="30" r="30"></circle>
                        </g>
                    </g>
                    <g id="electron_15_shell_5" transform="translate(1036.563225, 1616.549696) rotate(168.750000) translate(-1036.563225, -1616.549696) translate(1006.563225, 1586.549696)" fill="#77868B">
                        <g id="electron_0_shell_5">
                            <circle id="electron" cx="30" cy="30" r="30"></circle>
                        </g>
                    </g>
                    <g id="electron_16_shell_5" transform="translate(900.000000, 1630.000000) rotate(180.000000) translate(-900.000000, -1630.000000) translate(870.000000, 1600.000000)" fill="#77868B">
                        <g id="electron_0_shell_5">
                            <circle id="electron" cx="30" cy="30" r="30"></circle>
                        </g>
                    </g>
                    <g id="electron_17_shell_5" transform="translate(763.436775, 1616.549696) rotate(191.250000) translate(-763.436775, -1616.549696) translate(733.436775, 1586.549696)" fill="#77868B">
                        <g id="electron_0_shell_5">
                            <circle id="electron" cx="30" cy="30" r="30"></circle>
                        </g>
                    </g>
                    <g id="electron_18_shell_5" transform="translate(632.121597, 1576.715673) rotate(202.500000) translate(-632.121597, -1576.715673) translate(602.121597, 1546.715673)" fill="#77868B">
                        <g id="electron_0_shell_5">
                            <circle id="electron" cx="30" cy="30" r="30"></circle>
                        </g>
                    </g>
                    <g id="electron_19_shell_5" transform="translate(511.100837, 1512.028729) rotate(213.750000) translate(-511.100837, -1512.028729) translate(481.100837, 1482.028729)" fill="#77868B">
                        <g id="electron_0_shell_5">
                            <circle id="electron" cx="30" cy="30" r="30"></circle>
                        </g>
                    </g>
                    <g id="electron_20_shell_5" transform="translate(405.025253, 1424.974747) rotate(225.000000) translate(-405.025253, -1424.974747) translate(375.025253, 1394.974747)" fill="#77868B">
                        <g id="electron_0_shell_5">
                            <circle id="electron" cx="30" cy="30" r="30"></circle>
                        </g>
                    </g>
                    <g id="electron_21_shell_5" transform="translate(317.971271, 1318.899163) rotate(236.250000) translate(-317.971271, -1318.899163) translate(287.971271, 1288.899163)" fill="#77868B">
                        <g id="electron_0_shell_5">
                            <circle id="electron" cx="30" cy="30" r="30"></circle>
                        </g>
                    </g>
                    <g id="electron_22_shell_5" transform="translate(253.284327, 1197.878403) rotate(247.500000) translate(-253.284327, -1197.878403) translate(223.284327, 1167.878403)" fill="#77868B">
                        <g id="electron_0_shell_5">
                            <circle id="electron" cx="30" cy="30" r="30"></circle>
                        </g>
                    </g>
                    <g id="electron_23_shell_5" transform="translate(213.450304, 1066.563225) rotate(258.750000) translate(-213.450304, -1066.563225) translate(183.450304, 1036.563225)" fill="#77868B">
                        <g id="electron_0_shell_5">
                            <circle id="electron" cx="30" cy="30" r="30"></circle>
                        </g>
                    </g>
                    <g id="electron_24_shell_5" transform="translate(200.000000, 930.000000) rotate(270.000000) translate(-200.000000, -930.000000) translate(170.000000, 900.000000)" fill="#77868B">
                        <g id="electron_0_shell_5">
                            <circle id="electron" cx="30" cy="30" r="30"></circle>
                        </g>
                    </g>
                    <g id="electron_25_shell_5" transform="translate(213.450304, 793.436775) rotate(-78.750000) translate(-213.450304, -793.436775) translate(183.450304, 763.436775)" fill="#77868B">
                        <g id="electron_0_shell_5">
                            <circle id="electron" cx="30" cy="30" r="30"></circle>
                        </g>
                    </g>
                    <g id="electron_26_shell_5" transform="translate(253.284327, 662.121597) rotate(-67.500000) translate(-253.284327, -662.121597) translate(223.284327, 632.121597)" fill="#77868B">
                        <g id="electron_0_shell_5">
                            <circle id="electron" cx="30" cy="30" r="30"></circle>
                        </g>
                    </g>
                    <g id="electron_27_shell_5" transform="translate(317.971271, 541.100837) rotate(-56.250000) translate(-317.971271, -541.100837) translate(287.971271, 511.100837)" fill="#77868B">
                        <g id="electron_0_shell_5">
                            <circle id="electron" cx="30" cy="30" r="30"></circle>
                        </g>
                    </g>
                    <g id="electron_28_shell_5" transform="translate(405.025253, 435.025253) rotate(-45.000000) translate(-405.025253, -435.025253) translate(375.025253, 405.025253)" fill="#77868B">
                        <g id="electron_0_shell_5">
                            <circle id="electron" cx="30" cy="30" r="30"></circle>
                        </g>
                    </g>
                    <g id="electron_29_shell_5" transform="translate(511.100837, 347.971271) rotate(-33.750000) translate(-511.100837, -347.971271) translate(481.100837, 317.971271)" fill="#77868B">
                        <g id="electron_0_shell_5">
                            <circle id="electron" cx="30" cy="30" r="30"></circle>
                        </g>
                    </g>
                    <g id="electron_30_shell_5" transform="translate(632.121597, 283.284327) rotate(-22.500000) translate(-632.121597, -283.284327) translate(602.121597, 253.284327)" fill="#77868B">
                        <g id="electron_0_shell_5">
                            <circle id="electron" cx="30" cy="30" r="30"></circle>
                        </g>
                    </g>
                    <g id="electron_31_shell_5" transform="translate(763.436775, 243.450304) rotate(-11.250000) translate(-763.436775, -243.450304) translate(733.436775, 213.450304)" fill="#77868B">
                        <g id="electron_0_shell_5">
                            <circle id="electron" cx="30" cy="30" r="30"></circle>
                        </g>
                    </g>
                    <circle id="shell_6" stroke="#77868B" stroke-width="8" cx="900" cy="930" r="800"></circle>
                    <g id="electron_0_shell_6" transform="translate(870.000000, 100.000000)" fill="#77868B">
                        <circle id="electron" cx="30" cy="30" r="30"></circle>
                    </g>
                    <g id="electron_1_shell_6" transform="translate(1173.616115, 178.245903) rotate(20.000000) translate(-1173.616115, -178.245903) translate(1143.616115, 148.245903)" fill="#77868B">
                        <g id="electron_0_shell_6">
                            <circle id="electron" cx="30" cy="30" r="30"></circle>
                        </g>
                    </g>
                    <g id="electron_2_shell_6" transform="translate(1414.230088, 317.164446) rotate(40.000000) translate(-1414.230088, -317.164446) translate(1384.230088, 287.164446)" fill="#77868B">
                        <g id="electron_0_shell_6">
                            <circle id="electron" cx="30" cy="30" r="30"></circle>
                        </g>
                    </g>
                    <g id="electron_3_shell_6" transform="translate(1592.820323, 530.000000) rotate(60.000000) translate(-1592.820323, -530.000000) translate(1562.820323, 500.000000)" fill="#77868B">
                        <g id="electron_0_shell_6">
                            <circle id="electron" cx="30" cy="30" r="30"></circle>
                        </g>
                    </g>
                    <g id="electron_4_shell_6" transform="translate(1687.846202, 791.081458) rotate(80.000000) translate(-1687.846202, -791.081458) translate(1657.846202, 761.081458)" fill="#77868B">
                        <g id="electron_0_shell_6">
                            <circle id="electron" cx="30" cy="30" r="30"></circle>
                        </g>
                    </g>
                    <g id="electron_5_shell_6" transform="translate(1687.846202, 1068.918542) rotate(100.000000) translate(-1687.846202, -1068.918542) translate(1657.846202, 1038.918542)" fill="#77868B">
                        <g id="electron_0_shell_6">
                            <circle id="electron" cx="30" cy="30" r="30"></circle>
                        </g>
                    </g>
                    <g id="electron_6_shell_6" transform="translate(1592.820323, 1330.000000) rotate(120.000000) translate(-1592.820323, -1330.000000) translate(1562.820323, 1300.000000)" fill="#77868B">
                        <g id="electron_0_shell_6">
                            <circle id="electron" cx="30" cy="30" r="30"></circle>
                        </g>
                    </g>
                    <g id="electron_7_shell_6" transform="translate(1414.230088, 1542.835554) rotate(140.000000) translate(-1414.230088, -1542.835554) translate(1384.230088, 1512.835554)" fill="#77868B">
                        <g id="electron_0_shell_6">
                            <circle id="electron" cx="30" cy="30" r="30"></circle>
                        </g>
                    </g>
                    <g id="electron_8_shell_6" transform="translate(1173.616115, 1681.754097) rotate(160.000000) translate(-1173.616115, -1681.754097) translate(1143.616115, 1651.754097)" fill="#77868B">
                        <g id="electron_0_shell_6">
                            <circle id="electron" cx="30" cy="30" r="30"></circle>
                        </g>
                    </g>
                    <g id="electron_9_shell_6" transform="translate(900.000000, 1730.000000) rotate(180.000000) translate(-900.000000, -1730.000000) translate(870.000000, 1700.000000)" fill="#77868B">
                        <g id="electron_0_shell_6">
                            <circle id="electron" cx="30" cy="30" r="30"></circle>
                        </g>
                    </g>
                    <g id="electron_10_shell_6" transform="translate(626.383885, 1681.754097) rotate(200.000000) translate(-626.383885, -1681.754097) translate(596.383885, 1651.754097)" fill="#77868B">
                        <g id="electron_0_shell_6">
                            <circle id="electron" cx="30" cy="30" r="30"></circle>
                        </g>
                    </g>
                    <g id="electron_11_shell_6" transform="translate(385.769912, 1542.835554) rotate(220.000000) translate(-385.769912, -1542.835554) translate(355.769912, 1512.835554)" fill="#77868B">
                        <g id="electron_0_shell_6">
                            <circle id="electron" cx="30" cy="30" r="30"></circle>
                        </g>
                    </g>
                    <g id="electron_12_shell_6" transform="translate(207.179677, 1330.000000) rotate(240.000000) translate(-207.179677, -1330.000000) translate(177.179677, 1300.000000)" fill="#77868B">
                        <g id="electron_0_shell_6">
                            <circle id="electron" cx="30" cy="30" r="30"></circle>
                        </g>
                    </g>
                    <g id="electron_13_shell_6" transform="translate(112.153798, 1068.918542) rotate(260.000000) translate(-112.153798, -1068.918542) translate(82.153798, 1038.918542)" fill="#77868B">
                        <g id="electron_0_shell_6">
                            <circle id="electron" cx="30" cy="30" r="30"></circle>
                        </g>
                    </g>
                    <g id="electron_14_shell_6" transform="translate(112.153798, 791.081458) rotate(-80.000000) translate(-112.153798, -791.081458) translate(82.153798, 761.081458)" fill="#77868B">
                        <g id="electron_0_shell_6">
                            <circle id="electron" cx="30" cy="30" r="30"></circle>
                        </g>
                    </g>
                    <g id="electron_15_shell_6" transform="translate(207.179677, 530.000000) rotate(-60.000000) translate(-207.179677, -530.000000) translate(177.179677, 500.000000)" fill="#77868B">
                        <g id="electron_0_shell_6">
                            <circle id="electron" cx="30" cy="30" r="30"></circle>
                        </g>
                    </g>
                    <g id="electron_16_shell_6" transform="translate(385.769912, 317.164446) rotate(-40.000000) translate(-385.769912, -317.164446) translate(355.769912, 287.164446)" fill="#77868B">
                        <g id="electron_0_shell_6">
                            <circle id="electron" cx="30" cy="30" r="30"></circle>
                        </g>
                    </g>
                    <g id="electron_17_shell_6" transform="translate(626.383885, 178.245903) rotate(-20.000000) translate(-626.383885, -178.245903) translate(596.383885, 148.245903)" fill="#77868B">
                        <g id="electron_0_shell_6">
                            <circle id="electron" cx="30" cy="30" r="30"></circle>
                        </g>
                    </g>
                    <circle id="shell_7" stroke="#77868B" stroke-width="8" cx="900" cy="930" r="900"></circle>
                    <g id="electron_0_shell_7" transform="translate(870.000000, 0.000000)" fill="#77868B">
                        <circle id="electron" cx="30" cy="30" r="30"></circle>
                    </g>
                    <g id="electron_1_shell_7" transform="translate(900.000000, 1830.000000) rotate(180.000000) translate(-900.000000, -1830.000000) translate(870.000000, 1800.000000)" fill="#77868B">
                        <g id="electron_0_shell_7">
                            <circle id="electron" cx="30" cy="30" r="30"></circle>
                        </g>
                    </g>
                </g>
            </g>
        </g>
    </g>
</svg>